<?xml version="1.0" encoding="utf-8"?>
<!-- Generator: Adobe Illustrator 24.0.1, SVG Export Plug-In . SVG Version: 6.00 Build 0)  -->
<svg version="1.1" id="Layer_1" xmlns="http://www.w3.org/2000/svg" xmlns:xlink="http://www.w3.org/1999/xlink" x="0px" y="0px"
	 viewBox="0 0 270 270" style="enable-background:new 0 0 270 270;" xml:space="preserve">
<style type="text/css">
	.st0{fill:#E01E5A;}
	.st1{fill:#36C5F0;}
	.st2{fill:#2EB67D;}
	.st3{fill:#ECB22E;}
</style>
<g>
	<g>
		<path class="st0" d="M56.5,171.1c0,15.5-12.7,28.2-28.2,28.2S0,186.6,0,171.1c0-15.5,12.7-28.2,28.2-28.2h28.2V171.1z"/>
		<path class="st0" d="M70.7,171.1c0-15.5,12.7-28.2,28.2-28.2s28.2,12.7,28.2,28.2v70.7c0,15.5-12.7,28.2-28.2,28.2
			s-28.2-12.7-28.2-28.2C70.7,241.8,70.7,171.1,70.7,171.1z"/>
	</g>
	<g>
		<path class="st1" d="M98.9,57.8c-15.5,0-28.2-12.7-28.2-28.2S83.4,1.3,98.9,1.3s28.2,12.7,28.2,28.2v28.2H98.9z"/>
		<path class="st1" d="M98.9,72c15.5,0,28.2,12.7,28.2,28.2s-12.7,28.2-28.2,28.2H28.2C12.7,128.4,0,115.7,0,100.2S12.7,72,28.2,72
			C28.2,72,98.9,72,98.9,72z"/>
	</g>
	<g>
		<path class="st2" d="M212.2,100.2c0-15.5,12.7-28.2,28.2-28.2c15.5,0,28.2,12.7,28.2,28.2s-12.7,28.2-28.2,28.2h-28.2V100.2z"/>
		<path class="st2" d="M198,100.2c0,15.5-12.7,28.2-28.2,28.2c-15.5,0-28.2-12.7-28.2-28.2V29.5c0-15.5,12.7-28.2,28.2-28.2
			C185.3,1.3,198,14,198,29.5V100.2z"/>
	</g>
	<g>
		<path class="st3" d="M169.8,213.5c15.5,0,28.2,12.7,28.2,28.2S185.3,270,169.8,270c-15.5,0-28.2-12.7-28.2-28.2v-28.2H169.8z"/>
		<path class="st3" d="M169.8,199.3c-15.5,0-28.2-12.7-28.2-28.2c0-15.5,12.7-28.2,28.2-28.2h70.7c15.5,0,28.2,12.7,28.2,28.2
			c0,15.5-12.7,28.2-28.2,28.2H169.8z"/>
	</g>
</g>
</svg>
