<?xml version="1.0" encoding="utf-8"?>
<!-- Generator: Adobe Illustrator 18.0.0, SVG Export Plug-In . SVG Version: 6.00 Build 0)  -->
<!DOCTYPE svg PUBLIC "-//W3C//DTD SVG 1.1//EN" "http://www.w3.org/Graphics/SVG/1.1/DTD/svg11.dtd">
<svg version="1.1"  xmlns="http://www.w3.org/2000/svg" xmlns:xlink="http://www.w3.org/1999/xlink" x="0px" y="0px"
	 viewBox="0 0 11 17.7" enable-background="new 0 0 11 17.7" xml:space="preserve">
<path id="Shape_8_" fill="#969ba3" d="M5.5,11.8c1.6,0,2.9-1.3,2.9-2.9V2.9C8.4,1.3,7.1,0,5.5,0
	C3.9,0,2.6,1.3,2.6,2.9v5.9C2.6,10.5,3.9,11.8,5.5,11.8L5.5,11.8z M3.7,2.9c0-1,0.8-1.8,1.8-1.8c1,0,1.8,0.8,1.8,1.8v5.9
	c0,1-0.8,1.8-1.8,1.8c-0.5,0-1-0.2-1.3-0.5C3.9,9.8,3.7,9.4,3.7,8.9V2.9L3.7,2.9z M9.8,7.7v1.2c0,2.4-1.9,4.3-4.3,4.3
	s-4.3-1.9-4.3-4.3V7.7H0v1.2c0,2.8,2.2,5.2,4.9,5.5v2.2H1.7v1.2h7.7v-1.2H6.1v-2.2C8.8,14,11,11.7,11,8.9V7.7H9.8L9.8,7.7z"/>
</svg>
