<?xml version="1.0" encoding="UTF-8"?>
<!DOCTYPE svg  PUBLIC '-//W3C//DTD SVG 1.1//EN'  'http://www.w3.org/Graphics/SVG/1.1/DTD/svg11.dtd'>
<svg enable-background="new 0 0 107 49" version="1.1" viewBox="0 0 107 49" xml:space="preserve" xmlns="http://www.w3.org/2000/svg">
	<path d="m0.101 41.583h8.623v-34.087h-8.623v34.087zm50.422-40.936c-2.824 0-5.114 2.29-5.114 5.115 0 2.827 2.29 5.116 5.114 5.116 2.826 0 5.117-2.289 5.117-5.116 0-2.824-2.291-5.115-5.117-5.115m19.418 13.666v-6.817h-4.668c-1.022 4.384-3.312 7.938-7.451 9.886v4.373h4.529v11.428c0 5.989 4.922 8.985 9.549 8.985 6.965 0 10.064-4.606 10.77-5.961l-5.271-4.562h-0.497c-0.538 1.338-1.773 3.031-4.331 3.031-1.297 0-2.435-0.811-2.435-2.969v-9.953h7.604v-7.441h-7.799zm22.397 34.687 14.563-27.462v-7.207h-25.157v7.424h15.986l-14.852 27.245h9.46zm-45.854-7.415h8.035v-27.272h-8.035v27.272zm-5.828-18.262v18.26h-8.084v-15.873c0-3.215-1.85-4.821-4.283-4.821-2.824 0-5.697 2.337-5.697 7.108v13.586h-8.084v-27.269h6.43l0.437 3.604h0.147c1.558-2.434 4.576-4.188 8.277-4.188 7.351 0 10.857 4.384 10.857 9.593" fill="#EB5A6D"/>
</svg>